<?xml version="1.0" encoding="iso-8859-1"?>
<!-- Uploaded to: SVG Repo, www.svgrepo.com, Generator: SVG Repo Mixer Tools -->
<svg fill="#000000" height="800px" width="800px" version="1.1" id="Capa_1" xmlns="http://www.w3.org/2000/svg" xmlns:xlink="http://www.w3.org/1999/xlink" 
	 viewBox="0 0 490 490" xml:space="preserve">
<g>
	<path d="M124.997,124.998c-45.176,45.176-45.872,119.357-1.063,165.825c0.902,0.825,16.021,15.422,16.021,15.422l166.218-166.218
		l-15.81-16.56C262.24,92.083,182.852,67.144,124.997,124.998z M139.71,277.315c-24.268-20.462-49.568-88.288-0.126-137.73
		c39.527-39.526,101.66-35.936,137.726,0.13L139.71,277.315z"/>
	<path d="M407.229,0l-56.939,56.939C252.229-32.555,127.986-4.56,61.713,61.713c-79.299,79.299-80.882,207.322-4.775,288.572
		L0,407.228L82.766,490L490,82.767L407.229,0z M403.923,139.672l-41.179,41.179l-20.16-20.163l-14.586,14.585l20.16,20.164
		l-41.183,41.183l-20.161-20.157l-14.585,14.585l20.161,20.158l-41.182,41.181l-20.163-20.16l-14.586,14.586l20.164,20.16
		l-41.183,41.183l-20.159-20.163l-14.586,14.585l20.16,20.164l-41.183,41.183l-20.161-20.157l-14.585,14.586l20.16,20.157
		l-42.317,42.317l-53.594-53.6l57.12-57.115l-9.993-9.478c-72.874-72.88-72.879-191.457,0-264.336
		c60.127-60.127,174.669-86.476,264.336,0l9.474,9.992l57.12-57.119l53.599,53.594l-42.319,42.319l-20.16-20.164l-14.585,14.586
		L403.923,139.672z"/>
</g>
</svg>